# AST/ASF file generated using VICON BodyLanguage
# -----------------------------------------------
:version 1.10
:name VICON
:units
  mass 1.0
  length 0.45
  angle deg
:documentation
   .ast/.asf automatically generated from VICON data using
   VICON BodyBuilder and BodyLanguage model FoxedUp or BRILLIANT.MOD
:root
   order TX TY TZ RX RY RZ
   axis XYZ
   position 0 0 0  
   orientation 0 0 0 
:bonedata
  begin
     id 1 
     name lhipjoint
     direction 0.677091 -0.635792 0.370561 
     length 2.74323 
     axis 0 0 0  XYZ
  end
  begin
     id 2 
     name lfemur
     direction 0.34202 -0.939693 0  
     length 7.44995  
     axis 0 0 20  XYZ
    dof rx ry rz
    limits (-160.0 20.0)
           (-70.0 70.0)
           (-60.0 70.0)
  end
  begin
     id 3 
     name ltibia
     direction 0.34202 -0.939693 0   
     length 7.34467   
     axis 0 0 20   XYZ
    dof rx
    limits (-10.0 170.0)
  end
  begin
     id 4 
     name lfoot
     direction 0.101953 -0.280114 0.954537   
     length 1.72105   
     axis -90 7.62852e-016 20   XYZ
    dof rx rz
    limits (-45.0 90.0)
           (-70.0 20.0)
  end
  begin
     id 5 
     name ltoes
     direction 1.53537e-011 -4.21915e-011 1   
     length 0.865872   
     axis -90 7.62852e-016 20   XYZ
    dof rx
    limits (-90.0 20.0)
  end
  begin
     id 6 
     name rhipjoint
     direction -0.695735 -0.620586 0.361699   
     length 2.81045  
     axis 0 0 0  XYZ 
  end
  begin
     id 7 
     name rfemur
     direction -0.34202 -0.939693 0   
     length 7.29387   
     axis 0 0 -20   XYZ
    dof rx ry rz
    limits (-160.0 20.0)
           (-70.0 70.0)
           (-70.0 60.0)
  end
  begin
     id 8 
     name rtibia
     direction -0.34202 -0.939693 0   
     length 7.44935   
     axis 0 0 -20   XYZ
    dof rx
    limits (-10.0 170.0)
 end
 begin
     id 9 
     name rfoot
     direction -0.104163 -0.286184 0.952496   
     length 1.77731  
     axis -90 -7.62852e-016 -20   XYZ
    dof rx rz
    limits (-45.0 90.0)
           (-20.0 70.0)
  end
  begin
     id 10 
     name rtoes
     direction -1.5355e-011 -4.21888e-011 1   
     length 0.892424   
     axis -90 -7.62852e-016 -20   XYZ
    dof rx
    limits (-90.0 20.0)
  end
  begin
     id 11 
     name lowerback
     direction 0.0100202 0.997226 -0.0737589   
     length 2.16892   
     axis 0 0 0   XYZ
    dof rx ry rz
    limits (-20.0 45.0)
           (-30.0 30.0)
           (-30.0 30.0)
  end
  begin
     id 12 
     name upperback
     direction 0.00432398 0.999988 -0.00215019   
     length 2.17326   
     axis 0 0 0   XYZ
    dof rx ry rz
    limits (-20.0 45.0)
           (-30.0 30.0)
           (-30.0 30.0)
  end
  begin
     id 13 
     name thorax
     direction -0.00195047 0.999485 0.0320434   
     length 2.18139   
     axis 0 0 0   XYZ
    dof rx ry rz
    limits (-20.0 45.0)
           (-30.0 30.0)
           (-30.0 30.0)
  end
  begin
     id 14 
     name lowerneck
     direction 0.00782762 0.986241 0.165128   
     length 1.88415   
     axis 0 0 0   XYZ
    dof rx ry rz
    limits (-20.0 45.0)
           (-30.0 30.0)
           (-30.0 30.0)
  end
  begin
     id 15 
     name upperneck
     direction 0.00988667 0.981098 -0.193258   
     length 1.9242   
     axis 0 0 0   XYZ
    dof rx ry rz
    limits (-20.0 45.0)
           (-30.0 30.0)
           (-30.0 30.0)
  end
  begin
     id 16
     name head
     direction 0.00252199 0.996513 -0.0833958  
     length 1.93887  
     axis 0 0 0   XYZ
    dof rx ry rz
    limits (-20.0 45.0)
           (-30.0 30.0)
           (-30.0 30.0)
  end
  begin
     id 17 
     name lclavicle
     direction 0.929492 0.368193 -0.0218667  
     length 3.5955  
     axis 0 0 0   XYZ
    dof ry rz
    limits (-20.0 10.0)
           (0.0 20.0)
  end
  begin
     id 18 
     name lhumerus
     direction 1 -4.48972e-011 1.41911e-027   
     length 5.2795   
     axis 180 -30 -90   XYZ
    dof rx ry rz
    limits (-60.0 90.0)
           (-90.0 90.0)
           (-90.0 90.0)
  end
  begin
     id 19
     name lradius
     direction 1 -4.48963e-011 7.05772e-027   
     length 3.53504   
     axis 180 -30 -90   XYZ
    dof rx
    limits (-10.0 170.0)
  end
  begin
     id 20
     name lwrist
     direction 1 -4.48957e-011 9.54866e-027   
     length 1.76752   
     axis -7.69462e-015 90 90   XYZ
    dof ry
    limits (-180.0 0.0)
 end
  begin
     id 21 
     name lhand
     direction 1 -4.48979e-011 1.90973e-026   
     length 0.667948   
     axis -1.21857e-014 90 90   XYZ
    dof rx rz
    limits (-90.0 90.0)
           (-45.0 45.0)
  end
  begin
     id 22 
     name lfingers
     direction 1 -4.48987e-011 3.81946e-026   
     length 0.538517   
     axis -2.43714e-014 90 90   XYZ
    dof rx
    limits (0.0 90.0)
  end
  begin
     id 23
     name lthumb
     direction 0.707107 -6.34962e-011 0.707107   
     length 0.773206   
     axis -90 45 2.85299e-015   XYZ
    dof rx rz
    limits (-45.0 45.0)
           (-45.0 45.0)
  end
  begin
     id 24 
     name rclavicle
     direction -0.898763 0.414256 -0.143584   
     length 3.5176  
     axis 0 0 0   XYZ 
    dof ry rz
    limits (-10.0 20.0)
           (-20.0 0.0)
  end
  begin
     id 25 
     name rhumerus
     direction -1 -4.48971e-011 1.129e-027  
     length 5.25035   
     axis 180 30 90   XYZ
    dof rx ry rz
    limits (-90.0 60.0)
           (-90.0 90.0)
           (-90.0 90.0)
  end
  begin
     id 26 
     name rradius
     direction -1 -4.48955e-011 6.34664e-027   
     length 3.58884   
     axis 180 30 90   XYZ
    dof rx
    limits (-10.0 170.0)
  end
  begin
     id 27 
     name rwrist
     direction -1 -4.48966e-011 9.54866e-027   
     length 1.79442   
     axis -7.69462e-015 -90 -90   XYZ
    dof ry
    limits (-180.0 0.0)
  end
  begin
     id 28
     name rhand
     direction -1 -4.48973e-011 1.90973e-026   
     length 0.779235   
     axis -1.21857e-014 -90 -90   XYZ
    dof rx rz
    limits (-90.0 90.0)
           (-45.0 45.0)
  end
  begin
     id 29
     name rfingers
     direction -1 -4.48984e-011 3.81946e-026   
     length 0.62824   
     axis -2.43714e-014 -90 -90   XYZ
    dof rx
    limits (0.0 90.0)
  end
  begin
     id 30
     name rthumb
     direction -0.707107 -6.34968e-011 0.707107   
     length 0.90203   
     axis -90 -45 -2.85299e-015   XYZ
    dof rx rz
    limits (-45.0 45.0)
           (-45.0 45.0)
  end
:hierarchy
  begin
    root lhipjoint rhipjoint lowerback
    lhipjoint lfemur
    lfemur ltibia
    ltibia lfoot
    lfoot ltoes
    rhipjoint rfemur
    rfemur rtibia
    rtibia rfoot
    rfoot rtoes
    lowerback upperback
    upperback thorax
    thorax lowerneck lclavicle rclavicle
    lowerneck upperneck
    upperneck head
    lclavicle lhumerus
    lhumerus lradius
    lradius lwrist
    lwrist lhand lthumb
    lhand lfingers
    rclavicle rhumerus
    rhumerus rradius
    rradius rwrist
    rwrist rhand rthumb
    rhand rfingers
  end

#!OML:ASF I:\Random Stuff\random\construction\7_22_03\Session 2\subj1.ASF
:FULLY-SPECIFIED
:DEGREES
22
root -4.4254 17.7599 -2.13024 -13.3517 80.7447 -20.1432
lowerback 2.605 0.225868 -0.778324
upperback -2.7528 0.309125 0.694684
thorax -4.30587 0.196865 1.13297
lowerneck -23.1184 -2.25548 -1.27088
upperneck 27.2404 -3.3271 2.52129
head 13.0521 -1.14161 0.624686
rclavicle 1.69588e-014 4.77083e-015
rhumerus -36.3154 10.2476 -86.9585
rradius 42.8417
rwrist -1.54789
rhand -16.2552 21.435
rfingers 7.12502
rthumb 9.95397 -8.30965
lclavicle 1.69588e-014 4.77083e-015
lhumerus -37.8324 -6.04654 90.733
lradius 51.1213
lwrist 32.8353
lhand -18.8931 57.4988
lfingers 7.12502
lthumb 7.40829 -272.651
rfemur -0.114894 -1.08403 19.465
rtibia 8.74653e-015
rfoot -7.53903 -22.7732
rtoes 21.352
lfemur -12.3971 -15.3232 -12.8579
ltibia 21.4038
lfoot -14.4095 16.0844
ltoes -29.2998
23
root -4.41643 17.7603 -2.13313 -13.4165 80.837 -20.2033
lowerback 2.60882 0.241545 -0.881047
upperback -2.74404 0.322281 0.62747
thorax -4.2995 0.205238 1.12039
lowerneck -23.1133 -2.35399 -1.40056
upperneck 27.1921 -3.48694 2.73486
head 13.0431 -1.19578 0.700814
rclavicle -2.5842e-014 -3.57812e-015
rhumerus -36.2376 10.2722 -87.0246
rradius 43.0778
rwrist -1.59557
rhand -16.329 21.5394
rfingers 7.12502
rthumb 9.88278 -8.20866
lclavicle -2.5842e-014 -3.57812e-015
lhumerus -37.7449 -6.34493 90.7958
lradius 51.7138
lwrist 32.6491
lhand -18.9398 57.4944
lfingers 7.12502
lthumb 7.36324 -272.654
rfemur -0.0625726 -1.1785 19.4309
rtibia -7.95139e-015
rfoot -7.52333 -22.8002
rtoes 21.0021
lfemur -12.3864 -15.3599 -12.8916
ltibia 21.4102
lfoot -14.4521 16.0406
ltoes -29.1871
24
root -4.40746 17.7606 -2.13652 -13.5067 80.9333 -20.2951
lowerback 2.6213 0.245573 -1.01718
upperback -2.74504 0.319039 0.576025
thorax -4.30813 0.206975 1.14383
lowerneck -23.1134 -2.44805 -1.49329
upperneck 27.1862 -3.64594 2.92124
head 13.0517 -1.24842 0.760526
rclavicle -2.9445e-014 -7.95139e-016
rhumerus -36.1894 10.2838 -87.0551
rradius 43.2537
rwrist -1.69388
rhand -16.3834 21.5767
rfingers 7.12502
rthumb 9.83026 -8.17385
lclavicle -2.9445e-014 -7.95139e-016
lhumerus -37.7088 -6.5268 90.7935
lradius 52.1472
lwrist 32.4067
lhand -18.9741 57.6505
lfingers 7.12502
lthumb 7.33017 -272.496
rfemur -0.0174395 -1.27805 19.3987
rtibia 7.95139e-016
rfoot -7.50478 -22.8118
rtoes 20.5247
lfemur -12.3801 -15.6745 -12.9117
ltibia 21.4351
lfoot -14.5218 16.2272
ltoes -28.8879
25
root -4.39883 17.7622 -2.13996 -14.0654 81.0224 -20.8897
lowerback 2.61735 0.226022 -1.09723
upperback -2.76885 0.288208 0.5444
thorax -4.33011 0.193987 1.15803
lowerneck -23.038 -2.51741 -1.47742
upperneck 27.1699 -3.77784 3.00577
head 13.0354 -1.29283 0.767752
rclavicle -9.59136e-015 -2.78299e-015
rhumerus -36.1724 10.2173 -87.0926
rradius 43.2997
rwrist -1.76315
rhand -16.4248 21.4629
rfingers 7.12502
rthumb 9.79037 -8.28951
lclavicle -9.59136e-015 -2.78299e-015
lhumerus -37.6867 -6.5811 90.7069
lradius 52.376
lwrist 32.1772
lhand -18.9465 57.5207
lfingers 7.12502
lthumb 7.35676 -272.627
rfemur -0.00673019 -1.38868 19.4588
rtibia 7.95139e-015
rfoot -7.4387 -22.8317
rtoes 19.9508
lfemur -12.4369 -15.7081 -12.8508
ltibia 21.4898
lfoot -14.5414 16.165
ltoes -29.057
26
root -4.39011 17.7638 -2.14362 -14.9852 81.0921 -21.8605
lowerback 2.61872 0.20289 -1.08795
upperback -2.8126 0.256936 0.512108
thorax -4.37524 0.17835 1.12143
lowerneck -22.9535 -2.58616 -1.44056
upperneck 27.1715 -3.89741 3.02898
head 13.0221 -1.33812 0.750032
rclavicle -1.21756e-014 1.78906e-014
rhumerus -36.2031 10.0111 -87.0936
rradius 43.2171
rwrist -1.71629
rhand -16.3707 21.4092
rfingers 7.12502
rthumb 9.84256 -8.34077
lclavicle -1.21756e-014 1.78906e-014
lhumerus -37.7473 -6.6374 90.5875
lradius 52.4892
lwrist 32.0484
lhand -18.8889 57.1677
lfingers 7.12502
lthumb 7.41241 -272.982
rfemur -0.00725807 -1.49586 19.5785
rtibia -3.97569e-015
rfoot -7.45357 -22.8327
rtoes 19.7955
lfemur -12.5345 -15.5483 -12.7276
ltibia 21.579
lfoot -14.5698 15.9308
ltoes -29.2966
27
root -4.3777 17.7637 -2.14662 -15.8922 81.1235 -22.8026
lowerback 2.60474 0.202178 -1.07599
upperback -2.85343 0.256087 0.483769
thorax -4.40951 0.177739 1.0855
lowerneck -22.9147 -2.67111 -1.44754
upperneck 27.2436 -4.02739 3.06134
head 13.0485 -1.38926 0.7415
rclavicle -7.70291e-016 -1.07344e-014
rhumerus -36.2825 9.73233 -87.0213
rradius 43.0648
rwrist -1.61668
rhand -16.2447 21.4274
rfingers 7.12502
rthumb 9.96409 -8.31676
lclavicle -7.70291e-016 -1.07344e-014
lhumerus -37.8771 -6.70219 90.4868
lradius 52.4837
lwrist 31.9621
lhand -18.9365 57.0032
lfingers 7.12502
lthumb 7.36644 -273.145
rfemur 0.0135938 -1.56699 19.6977
rtibia 1.59028e-015
rfoot -7.49853 -22.8236
rtoes 19.8378
lfemur -12.6042 -15.4655 -12.603
ltibia 21.6935
lfoot -14.6569 15.7777
ltoes -29.2025
28
root -4.36427 17.7646 -2.14896 -16.6285 81.1266 -23.6149
lowerback 2.53004 0.20813 -1.13405
upperback -2.88318 0.262975 0.490273
thorax -4.3986 0.183538 1.12449
lowerneck -22.9022 -2.74672 -1.52899
upperneck 27.2869 -4.13923 3.16783
head 13.0721 -1.43041 0.77711
rclavicle 2.53078e-014 5.56597e-015
rhumerus -36.3458 9.44812 -86.8968
rradius 42.8415
rwrist -1.5075
rhand -16.2484 21.3821
rfingers 7.12502
rthumb 9.96053 -8.36226
lclavicle 2.53078e-014 5.56597e-015
lhumerus -37.9773 -6.61784 90.3664
lradius 52.2681
lwrist 31.8249
lhand -18.9473 56.9735
lfingers 7.12502
lthumb 7.356 -273.174
rfemur -0.0173551 -1.6066 19.8129
rtibia -7.15625e-015
rfoot -7.52981 -22.8328
rtoes 20.1527
lfemur -12.7087 -15.4285 -12.4755
ltibia 21.8104
lfoot -14.7611 15.7011
ltoes -29.0997
29
root -4.35195 17.7649 -2.15182 -17.0916 81.1439 -24.1462
lowerback 2.46897 0.199727 -1.25621
upperback -2.89129 0.247538 0.501339
thorax -4.3727 0.179999 1.20554
lowerneck -22.8877 -2.79927 -1.63817
upperneck 27.2661 -4.21863 3.31132
head 13.0699 -1.45686 0.837142
rclavicle -1.33061e-014 3.57812e-015
rhumerus -36.3802 9.16562 -86.7517
rradius 42.4833
rwrist -1.37531
rhand -16.2828 21.3561
rfingers 7.12502
rthumb 9.92729 -8.38979
lclavicle -1.33061e-014 3.57812e-015
lhumerus -38.0463 -6.4069 90.1853
lradius 51.8166
lwrist 31.6546
lhand -18.8301 56.976
lfingers 7.12502
lthumb 7.46913 -273.176
rfemur -0.0444105 -1.64864 19.8763
rtibia -7.15625e-015
rfoot -7.65162 -22.8384
rtoes 20.6302
lfemur -12.8006 -15.4105 -12.4005
ltibia 21.9086
lfoot -14.8474 15.6523
ltoes -29.0933
30
root -4.33755 17.7644 -2.15487 -17.3506 81.1631 -24.4355
lowerback 2.42205 0.214112 -1.37524
upperback -2.88703 0.261074 0.477359
thorax -4.34265 0.189902 1.24682
lowerneck -22.9043 -2.87575 -1.72627
upperneck 27.2694 -4.32689 3.40969
head 13.0834 -1.49933 0.870707
rclavicle 2.2413e-014 -5.56597e-015
rhumerus -36.4564 8.83943 -86.5781
rradius 42.0359
rwrist -1.28547
rhand -16.2268 21.3458
rfingers 7.12502
rthumb 9.98135 -8.39757
lclavicle 2.2413e-014 -5.56597e-015
lhumerus -38.0962 -6.26299 89.9889
lradius 51.1344
lwrist 31.549
lhand -18.904 57.0713
lfingers 7.12502
lthumb 7.39781 -273.078
rfemur -0.0289778 -1.68215 19.8984
rtibia 1.66979e-014
rfoot -7.66714 -22.8453
rtoes 20.247
lfemur -12.8231 -15.4711 -12.3808
ltibia 21.9821
lfoot -14.9438 15.6688
ltoes -28.9885
31
root -4.32148 17.7646 -2.1576 -17.7501 81.1438 -24.8678
lowerback 2.375 0.241383 -1.44398
upperback -2.91064 0.294124 0.442731
thorax -4.34182 0.208288 1.24768
lowerneck -22.8498 -2.96081 -1.84073
upperneck 27.2874 -4.45743 3.57353
head 13.0921 -1.5448 0.931177
rclavicle 1.1778e-014 5.56597e-015
rhumerus -36.6232 8.48832 -86.4298
rradius 41.5407
rwrist -1.24203
rhand -16.3116 21.308
rfingers 7.12502
rthumb 9.89955 -8.43923
lclavicle 1.1778e-014 5.56597e-015
lhumerus -38.1919 -6.07387 89.7263
lradius 50.2757
lwrist 31.44
lhand -19.1206 57.0649
lfingers 7.12502
lthumb 7.18869 -273.077
rfemur -0.010059 -1.68595 19.9532
rtibia -3.97569e-015
rfoot -7.6439 -22.8487
rtoes 19.8852
lfemur -12.8185 -15.6403 -12.327
ltibia 22.0433
lfoot -15.0517 15.8189
ltoes -28.8896
